#!OML:ASF F:\VICON\USERDATA\INSTALL\rory3\rory3.ASF
:FULLY-SPECIFIED
:DEGREES
507
root -0.0441238 15.669 41.0135 -0.35903 3.62567 5.43564
lowerback 12.242 -0.396029 -9.6596
upperback -4.70662 -2.06935 1.15375
thorax -11.763 -0.188538 7.20461
lowerneck -9.87978 -6.44422 -5.38837
upperneck 21.0399 -9.16953 5.24157
head 8.67678 -4.25423 1.67588
rclavicle -9.44227e-016 1.82882e-014
rhumerus -43.9989 -10.3986 -76.3261
rradius 24.4888
rwrist 4.97588
rhand -8.66455 18.8196
rfingers 7.12502
rthumb 17.2693 -10.4331
lclavicle -9.44227e-016 1.82882e-014
lhumerus -37.1824 12.3043 81.2531
lradius 21.0227
lwrist -3.07215
lhand -4.32287 18.0835
lfingers 7.12502
lthumb 21.4439 46.9166
rfemur -27.0811 15.004 14.4389
rtibia 34.1644
rfoot -6.82824 -14.5351
rtoes 8.02707
lfemur 15.1907 -5.12027 -28.8954
ltibia 24.407
lfoot -6.57715 -2.44625
ltoes -2.51508
508
root -0.0745566 15.675 41.1523 -0.489229 3.82195 5.23388
lowerback 12.1957 -0.405167 -9.42634
upperback -4.73127 -2.04155 1.118
thorax -11.7729 -0.19367 7.02396
lowerneck -9.75559 -6.54081 -5.37091
upperneck 21.0638 -9.32886 5.29877
head 8.67363 -4.32478 1.6775
rclavicle 7.7526e-015 -4.37326e-015
rhumerus -43.9968 -10.8186 -76.149
rradius 24.4154
rwrist 5.17464
rhand -8.84245 19.0697
rfingers 7.12502
rthumb 17.0981 -10.1979
lclavicle 7.7526e-015 -4.37326e-015
lhumerus -37.53 12.5459 80.7892
lradius 20.6392
lwrist -3.59443
lhand -4.0903 18.214
lfingers 7.12502
lthumb 21.6672 47.0216
rfemur -26.4475 14.6724 15.0558
rtibia 34.4926
rfoot -7.33865 -14.1886
rtoes 7.32107
lfemur 14.1694 -4.27755 -28.0346
ltibia 26.6796
lfoot -5.16205 -3.26612
ltoes -1.9844
509
root -0.10986 15.6788 41.2861 -0.541197 4.03402 5.10526
lowerback 12.2097 -0.423154 -9.40863
upperback -4.82821 -2.06809 1.12891
thorax -11.8881 -0.196485 7.03512
lowerneck -9.6396 -6.5996 -5.40087
upperneck 21.1436 -9.43172 5.36268
head 8.69049 -4.37094 1.69503
rclavicle 2.67862e-014 3.97569e-015
rhumerus -43.9595 -10.9941 -76.0295
rradius 24.2876
rwrist 5.26443
rhand -9.05611 18.8699
rfingers 7.12502
rthumb 16.8924 -10.4154
lclavicle 2.67862e-014 3.97569e-015
lhumerus -37.9265 13.0856 80.1891
lradius 20.0392
lwrist -4.40366
lhand -4.0604 18.064
lfingers 7.12502
lthumb 21.696 46.8683
rfemur -25.8366 14.4231 15.5637
rtibia 34.614
rfoot -7.63729 -14.1217
rtoes 6.91976
lfemur 12.8792 -3.46357 -27.217
ltibia 29.2322
lfoot -3.73203 -3.97828
ltoes -1.29966
510
root -0.148396 15.6864 41.4057 -0.583916 4.3155 4.77197
lowerback 12.3672 -0.470072 -9.21647
upperback -4.90843 -2.10868 1.21691
thorax -12.0679 -0.212173 7.04246
lowerneck -9.61406 -6.63383 -5.42634
upperneck 21.1344 -9.48995 5.42437
head 8.6907 -4.395 1.71385
rclavicle -1.51573e-014 1.07344e-014
rhumerus -43.9328 -10.8569 -76.1243
rradius 24.4516
rwrist 4.84879
rhand -9.04644 18.4584
rfingers 7.12502
rthumb 16.9017 -10.8262
lclavicle -1.51573e-014 1.07344e-014
lhumerus -38.1916 13.6216 79.6561
lradius 19.4312
lwrist -5.16149
lhand -4.20654 17.8824
lfingers 7.12502
lthumb 21.5556 46.7028
rfemur -25.2297 14.2441 16.2677
rtibia 34.6213
rfoot -8.00928 -14.1619
rtoes 6.10077
lfemur 11.3814 -2.65176 -26.1758
ltibia 31.8661
lfoot -1.89407 -4.54152
ltoes -1.56688
511
root -0.182735 15.6948 41.5244 -0.597308 4.63805 4.32056
lowerback 12.4181 -0.548981 -8.82294
upperback -4.972 -2.14228 1.32029
thorax -12.1678 -0.245746 6.94535
lowerneck -9.53524 -6.66013 -5.51806
upperneck 21.0743 -9.53978 5.55716
head 8.67042 -4.41519 1.77022
rclavicle 8.89561e-015 -1.07344e-014
rhumerus -43.9256 -10.6829 -76.2999
rradius 24.6738
rwrist 4.15982
rhand -9.30136 18.6762
rfingers 7.12502
rthumb 16.6563 -10.6291
lclavicle 8.89561e-015 -1.07344e-014
lhumerus -38.4485 13.7556 79.3614
lradius 19.1339
lwrist -5.50659
lhand -4.19781 17.913
lfingers 7.12502
lthumb 21.564 46.7325
rfemur -24.5918 13.8884 17.0781
rtibia 34.4961
rfoot -8.45757 -14.0153
rtoes 3.79744
lfemur 9.81368 -1.82357 -25.0099
ltibia 34.5741
lfoot 0.0403723 -5.23353
ltoes -1.56699
512
root -0.211959 15.6994 41.6527 -0.663777 4.94951 3.74801
lowerback 12.2796 -0.667935 -8.30944
upperback -4.9817 -2.18304 1.46561
thorax -12.0901 -0.303095 6.81732
lowerneck -9.80598 -6.68319 -5.40381
upperneck 21.3776 -9.56369 5.38911
head 8.81078 -4.4235 1.68149
rclavicle -2.30093e-014 -1.43125e-014
rhumerus -43.8527 -10.3563 -76.5306
rradius 24.8242
rwrist 3.49974
rhand -9.45683 19.0802
rfingers 7.12502
rthumb 16.5067 -10.2376
lclavicle -2.30093e-014 -1.43125e-014
lhumerus -38.6681 14.1955 78.8896
lradius 18.6785
lwrist -6.26815
lhand -4.08794 17.8319
lfingers 7.12502
lthumb 21.6695 46.6392
rfemur -23.7865 13.5037 18.0175
rtibia 34.2182
rfoot -8.78411 -13.854
rtoes 1.71976
lfemur 8.39339 -1.29303 -23.8098
ltibia 37.3254
lfoot 2.05303 -5.61242
ltoes 1.84172
513
root -0.240252 15.7095 41.7753 -0.744582 5.27241 3.26144
lowerback 12.1255 -0.750361 -7.88218
upperback -4.89876 -2.18982 1.57979
thorax -11.9029 -0.347925 6.69187
lowerneck -9.56954 -6.70907 -5.48714
upperneck 21.0369 -9.60994 5.56002
head 8.66695 -4.445 1.75706
rclavicle -2.32578e-014 1.23246e-014
rhumerus -43.6005 -10.1377 -76.6813
rradius 24.9625
rwrist 3.2094
rhand -9.54773 19.0804
rfingers 7.12502
rthumb 16.4191 -10.2447
lclavicle -2.32578e-014 1.23246e-014
lhumerus -38.6588 14.6683 78.4929
lradius 18.2657
lwrist -6.9931
lhand -4.10432 17.976
lfingers 7.12502
lthumb 21.6538 46.7851
rfemur -22.9576 13.1252 18.8452
rtibia 33.8648
rfoot -8.81088 -13.8103
rtoes -0.598366
lfemur 6.9128 -1.00225 -22.7827
ltibia 40.0116
lfoot 4.14925 -5.4455
ltoes 5.91833
514
root -0.268414 15.7256 41.8887 -0.738393 5.66782 2.91006
lowerback 12.1573 -0.82605 -7.54741
upperback -4.92543 -2.22943 1.65315
thorax -11.9494 -0.385883 6.59328
lowerneck -9.61865 -6.84447 -5.63381
upperneck 20.9625 -9.79622 5.69444
head 8.67739 -4.53057 1.80228
rclavicle -2.5842e-015 -4.37326e-015
rhumerus -43.5092 -10.0291 -76.6826
rradius 25.2144
rwrist 3.32252
rhand -9.38269 18.9412
rfingers 7.12502
rthumb 16.578 -10.3707
lclavicle -2.5842e-015 -4.37326e-015
lhumerus -38.7824 15.0986 78.1064
lradius 17.9296
lwrist -7.70023
lhand -4.00509 18.046
lfingers 7.12502
lthumb 21.7491 46.8441
rfemur -22.2573 12.7033 19.4682
rtibia 33.5316
rfoot -9.10349 -13.7011
rtoes -0.544878
lfemur 5.30768 -0.821659 -21.941
ltibia 42.5864
lfoot 6.04358 -5.29388
ltoes 7.54768
